<svg width="84" height="84" viewBox="0 0 84 84" fill="none" xmlns="http://www.w3.org/2000/svg">
<rect x="0.5" y="0.5" width="83" height="83" rx="9.5" stroke="#F0E8FA"/>
<g clip-path="url(#clip0_252_45)">
<path d="M25.125 42C25.125 29.4044 33.497 18.3624 45.3602 14.9127L47.6203 10.5092C45.7651 10.1812 43.8783 10 42 10C24.4237 10 10 24.4237 10 42C10 59.5763 24.4237 74 42 74C43.8802 74 45.7695 73.8188 47.6269 73.4899L47.2259 69.4565C34.3794 66.6614 25.125 55.249 25.125 42Z" fill="#7CAEF8"/>
<path fill-rule="evenodd" clip-rule="evenodd" d="M49.2695 14.0377L57.75 14.325C67.6874 19.9125 74 30.3751 74 42C74 43.8731 73.8061 45.7722 73.4762 47.6186L73.4741 47.6174L73.475 47.625L73.4374 47.9626C72.9874 50.3624 72.1127 52.7624 71.0626 55.0873C71.0626 55.0874 71.0626 55.0874 71.0626 55.0875C71.0067 55.2179 70.9415 55.3576 70.8763 55.4974C70.8103 55.6389 70.7443 55.7805 70.6878 55.9126V55.9498C70.669 56.0062 70.6408 56.0532 70.6126 56.1002C70.5845 56.147 70.5564 56.1939 70.5376 56.25C70.0501 57.225 69.4878 58.1625 68.9251 59.1C68.5878 59.625 68.2126 60.15 67.8001 60.6748L67.8 60.6748C67.5375 61.0875 67.2374 61.5 66.9 61.9125C66.4125 62.5123 65.925 63.075 65.3624 63.6376C63.1875 66.0375 60.6 68.0626 57.7875 69.6751H48.75C42.0752 65.85 36.9002 59.6627 34.425 52.3876L34.4249 52.3876H34.35L34.0238 51.2584C33.9667 51.0746 33.9136 50.8909 33.8645 50.7071L33.8625 50.7001C33.7901 50.4539 33.7233 50.2076 33.6598 49.9613L33.3377 48.7876L33.375 48.7876C32.8875 46.5377 32.625 44.2876 32.625 42.0001L32.625 41.5876L32.5499 41.6251L32.6594 40.4942C32.6603 40.485 32.6612 40.4759 32.6621 40.4668C32.6622 40.4654 32.6624 40.464 32.6625 40.4626C32.6633 40.4518 32.664 40.4411 32.6648 40.4303C32.6758 40.2693 32.6836 40.1117 32.6913 39.9553C32.6934 39.9126 32.6955 39.87 32.6976 39.8274C32.7127 39.5294 32.7308 39.2336 32.7749 38.925C32.791 38.7308 32.8142 38.5436 32.8414 38.3604L32.925 37.6501L32.9625 37.6501C33.5509 33.1777 35.0628 28.9363 37.4437 25.125H37.2375L38.6191 23.3763C38.9339 22.9401 39.2609 22.5104 39.5999 22.0875L40.1625 21.375H40.2162C42.7035 18.4112 45.7956 15.9445 49.2695 14.0377Z" fill="#5374E9"/>
<path d="M53.925 68.1002C45.9375 64.8377 39.7874 57.9376 37.4625 49.6501C37.3126 49.1252 37.1626 48.5627 37.05 48.0376C36.6 46.0502 36.375 44.0251 36.375 42.0001C36.375 41.1001 36.4125 40.2377 36.5249 39.3374C37.0124 34.1624 38.8874 29.2874 42 25.1251L42.5626 24.4126C45.4875 20.7377 49.4249 17.7749 53.925 15.8999L57.75 14.325C56.6999 13.6877 55.5749 13.125 54.4125 12.6375C54.4125 12.6375 53.6249 12.3377 53.5125 12.3002C51.6375 11.5502 49.8376 10.9 47.9626 10.5627L47.625 10.4875L47.2874 10.5627C32.2501 13.4124 21.375 26.6999 21.375 42.0001C21.375 57.3002 32.2501 70.5877 47.2874 73.4374L47.625 73.5126L47.9626 73.4374C49.8376 73.1001 51.6375 72.4501 53.5125 71.6999C53.6249 71.6624 53.775 71.5876 53.8874 71.5501L54.525 71.2876C55.65 70.8376 56.7374 70.2749 57.7875 69.6751L53.925 68.1002Z" fill="#6C8DFF"/>
</g>
<defs>
<clipPath id="clip0_252_45">
<rect width="64" height="64" fill="white" transform="translate(10 10)"/>
</clipPath>
</defs>
</svg>
