<svg width="151" height="53" viewBox="0 0 151 53" fill="none" xmlns="http://www.w3.org/2000/svg">
<path d="M20.16 20.12C21.536 20.12 22.768 19.992 23.856 19.736C24.976 19.448 25.936 19.064 26.736 18.584C26.896 18.744 27.04 18.968 27.168 19.256C27.328 19.544 27.408 19.864 27.408 20.216C27.408 21.048 26.944 21.752 26.016 22.328C25.088 22.872 23.632 23.144 21.648 23.144C20.624 23.144 19.616 23.096 18.624 23C17.632 22.872 16.64 22.712 15.648 22.52V35.672C15.648 36.44 15.792 37.048 16.08 37.496C16.4 37.944 16.768 38.28 17.184 38.504C17.632 38.696 18.096 38.824 18.576 38.888C19.088 38.952 19.536 38.984 19.92 38.984V41C19.536 41 19.056 40.984 18.48 40.952C17.904 40.888 17.312 40.824 16.704 40.76C16.096 40.696 15.504 40.648 14.928 40.616C14.352 40.552 13.872 40.52 13.488 40.52C13.104 40.52 12.624 40.552 12.048 40.616C11.472 40.648 10.88 40.696 10.272 40.76C9.664 40.824 9.072 40.888 8.496 40.952C7.92 40.984 7.44 41 7.056 41V38.984C7.472 38.984 7.936 38.952 8.448 38.888C8.96 38.824 9.424 38.696 9.84 38.504C10.256 38.28 10.608 37.944 10.896 37.496C11.184 37.048 11.328 36.44 11.328 35.672V17.624C11.328 16.44 11.296 15.464 11.232 14.696C11.2 13.896 11.072 13.288 10.848 12.872C10.624 12.424 10.304 12.12 9.888 11.96C9.472 11.768 8.896 11.672 8.16 11.672V9.992C8.96 9.992 9.648 9.944 10.224 9.848C10.832 9.752 11.376 9.608 11.856 9.416C12.336 9.224 12.768 9 13.152 8.744C13.568 8.488 14 8.216 14.448 7.928H15.648V19.976C16.384 20.04 17.136 20.088 17.904 20.12C18.672 20.12 19.424 20.12 20.16 20.12ZM11.136 4.424C10.24 4.424 9.376 4.568 8.544 4.856C7.712 5.144 6.976 5.608 6.336 6.248C5.696 6.856 5.184 7.688 4.8 8.744C4.416 9.768 4.224 11.016 4.224 12.488C4.224 13.288 4.272 14.008 4.368 14.648C4.464 15.256 4.544 15.912 4.608 16.616C3.136 16.616 2.032 16.28 1.296 15.608C0.56 14.936 0.192 14.088 0.192 13.064C0.192 12.328 0.352 11.752 0.672 11.336C1.024 10.888 1.472 10.536 2.016 10.28C1.664 10.088 1.424 9.688 1.296 9.08C1.168 8.472 1.104 7.96 1.104 7.544C1.104 6.648 1.328 5.832 1.776 5.096C2.224 4.36 2.832 3.736 3.6 3.224C4.4 2.712 5.328 2.328 6.384 2.072C7.44 1.784 8.592 1.64 9.84 1.64C10.992 1.64 12.128 1.752 13.248 1.976C14.368 2.168 15.456 2.408 16.512 2.696C17.568 2.952 18.576 3.192 19.536 3.416C20.528 3.608 21.488 3.704 22.416 3.704C23.536 3.704 24.608 3.496 25.632 3.08C26.688 2.632 27.76 1.816 28.848 0.631999C29.232 0.727998 29.632 1.016 30.048 1.496C30.496 1.976 30.72 2.584 30.72 3.32C30.72 3.96 30.48 4.552 30 5.096C29.52 5.608 28.672 5.864 27.456 5.864C27.456 6.088 27.408 6.36 27.312 6.68C27.216 6.968 27.04 7.256 26.784 7.544C26.56 7.8 26.24 8.024 25.824 8.216C25.44 8.408 24.944 8.504 24.336 8.504C23.408 8.504 22.416 8.296 21.36 7.88C20.336 7.432 19.264 6.968 18.144 6.488C17.056 5.976 15.92 5.512 14.736 5.096C13.552 4.648 12.352 4.424 11.136 4.424ZM34.2128 11.432C34.2128 10.472 34.5488 9.672 35.2208 9.032C35.8928 8.36 36.6928 8.024 37.6208 8.024C38.5488 8.024 39.3328 8.36 39.9728 9.032C40.6448 9.672 40.9808 10.472 40.9808 11.432C40.9808 12.392 40.6448 13.208 39.9728 13.88C39.3328 14.52 38.5488 14.84 37.6208 14.84C36.6928 14.84 35.8928 14.52 35.2208 13.88C34.5488 13.208 34.2128 12.392 34.2128 11.432ZM39.6368 36.248C39.6368 36.888 39.7328 37.416 39.9248 37.832C40.1488 38.248 40.4048 38.584 40.6928 38.84C41.0128 39.096 41.3648 39.288 41.7488 39.416C42.1648 39.512 42.5648 39.56 42.9488 39.56V41C42.5648 41 42.1328 40.984 41.6528 40.952C41.2048 40.888 40.7248 40.824 40.2128 40.76C39.7008 40.696 39.2048 40.648 38.7248 40.616C38.2768 40.552 37.8608 40.52 37.4768 40.52C37.0928 40.52 36.6608 40.552 36.1808 40.616C35.7328 40.648 35.2528 40.696 34.7408 40.76C34.2288 40.824 33.7328 40.888 33.2528 40.952C32.8048 40.984 32.3888 41 32.0048 41V39.56C32.8688 39.56 33.6368 39.32 34.3088 38.84C34.9808 38.36 35.3168 37.496 35.3168 36.248V27.992C35.3168 26.808 35.2848 25.832 35.2208 25.064C35.1888 24.264 35.0608 23.656 34.8368 23.24C34.6128 22.792 34.2928 22.488 33.8768 22.328C33.4608 22.136 32.8848 22.04 32.1488 22.04V20.6C32.9488 20.6 33.6208 20.552 34.1648 20.456C34.7408 20.36 35.2528 20.216 35.7008 20.024C36.1488 19.832 36.5648 19.608 36.9488 19.352C37.3328 19.096 37.7488 18.824 38.1968 18.536H39.6368V36.248ZM64.5105 32.024C64.5105 29.88 64.3985 28.088 64.1745 26.648C63.9825 25.208 63.6785 24.056 63.2625 23.192C62.8465 22.328 62.3185 21.72 61.6785 21.368C61.0385 20.984 60.3025 20.792 59.4705 20.792C58.6385 20.792 57.8385 20.952 57.0705 21.272C56.3345 21.592 55.6785 22.104 55.1025 22.808C54.5265 23.48 54.0625 24.376 53.7105 25.496C53.3905 26.584 53.2305 27.896 53.2305 29.432V36.248C53.2305 36.888 53.3265 37.416 53.5185 37.832C53.7425 38.248 53.9985 38.584 54.2865 38.84C54.6065 39.096 54.9585 39.288 55.3425 39.416C55.7585 39.512 56.1585 39.56 56.5425 39.56V41C56.1585 41 55.7265 40.984 55.2465 40.952C54.7985 40.888 54.3185 40.824 53.8065 40.76C53.2945 40.696 52.7985 40.648 52.3185 40.616C51.8705 40.552 51.4545 40.52 51.0705 40.52C50.6865 40.52 50.2545 40.552 49.7745 40.616C49.3265 40.648 48.8465 40.696 48.3345 40.76C47.8225 40.824 47.3265 40.888 46.8465 40.952C46.3985 40.984 45.9825 41 45.5985 41V39.56C46.4625 39.56 47.2305 39.32 47.9025 38.84C48.5745 38.36 48.9105 37.496 48.9105 36.248V28.232C48.9105 27.048 48.8785 26.072 48.8145 25.304C48.7825 24.504 48.6545 23.896 48.4305 23.48C48.2065 23.032 47.8865 22.728 47.4705 22.568C47.0545 22.376 46.4785 22.28 45.7425 22.28V21.08C46.5425 21.08 47.2305 21.032 47.8065 20.936C48.4145 20.84 48.9585 20.696 49.4385 20.504C49.9185 20.312 50.3505 20.088 50.7345 19.832C51.1505 19.576 51.5825 19.304 52.0305 19.016H53.2305V22.376C53.8385 21.256 54.6705 20.344 55.7265 19.64C56.8145 18.904 58.0945 18.536 59.5665 18.536C62.7345 18.536 65.0705 19.496 66.5745 21.416C68.0785 23.336 68.8305 26.52 68.8305 30.968V36.008C68.8305 36.648 68.9265 37.176 69.1185 37.592C69.3425 38.008 69.5985 38.344 69.8865 38.6C70.2065 38.856 70.5585 39.048 70.9425 39.176C71.3585 39.272 71.7585 39.32 72.1425 39.32V41C71.7265 41 71.3585 40.984 71.0385 40.952C70.7185 40.888 70.3825 40.84 70.0305 40.808C69.7105 40.744 69.3265 40.696 68.8785 40.664C68.4625 40.6 67.9505 40.568 67.3425 40.568C66.9265 40.568 66.4465 40.6 65.9025 40.664C65.3905 40.696 64.7665 40.808 64.0305 41L63.5985 40.184C63.8225 39.96 63.9985 39.56 64.1265 38.984C64.2545 38.376 64.3345 37.688 64.3665 36.92C64.4305 36.152 64.4625 35.336 64.4625 34.472C64.4945 33.608 64.5105 32.792 64.5105 32.024ZM93.1958 36.248C93.1958 36.888 93.2918 37.416 93.4838 37.832C93.7078 38.248 93.9638 38.584 94.2518 38.84C94.5718 39.096 94.9238 39.288 95.3078 39.416C95.7238 39.512 96.1238 39.56 96.5078 39.56V41C95.7718 41 95.1318 40.936 94.5878 40.808C94.0758 40.68 93.4518 40.616 92.7158 40.616C91.9798 40.616 91.3398 40.632 90.7958 40.664C90.2518 40.696 89.6118 40.808 88.8758 41V38.456C88.1398 39.288 87.2598 40.04 86.2358 40.712C85.2118 41.352 83.9638 41.672 82.4918 41.672C81.3078 41.672 80.2198 41.512 79.2278 41.192C78.2678 40.872 77.4358 40.408 76.7318 39.8C76.0598 39.192 75.5318 38.472 75.1478 37.64C74.7638 36.776 74.5718 35.816 74.5718 34.76C74.5718 33.736 74.7638 32.824 75.1478 32.024C75.5638 31.192 76.1398 30.504 76.8758 29.96C77.6118 29.384 78.4758 28.952 79.4678 28.664C80.4598 28.344 81.5638 28.184 82.7798 28.184C84.1558 28.184 85.3238 28.328 86.2838 28.616C87.2758 28.872 88.1398 29.176 88.8758 29.528V27.752C88.8758 26.92 88.8118 26.088 88.6838 25.256C88.5878 24.424 88.3798 23.672 88.0598 23C87.7398 22.328 87.2758 21.784 86.6678 21.368C86.0598 20.952 85.2758 20.744 84.3158 20.744C83.8998 20.744 83.4358 20.792 82.9238 20.888C82.4438 20.984 81.9958 21.16 81.5798 21.416C81.1638 21.64 80.8118 21.96 80.5238 22.376C80.2358 22.76 80.0918 23.256 80.0918 23.864C80.0918 24.184 80.1398 24.552 80.2358 24.968C79.7558 25.224 79.2278 25.352 78.6518 25.352C77.7558 25.352 77.0998 25.112 76.6838 24.632C76.2678 24.12 76.0598 23.544 76.0598 22.904C76.0598 22.264 76.2678 21.704 76.6838 21.224C77.1318 20.712 77.7558 20.456 78.5558 20.456C78.5558 20.104 78.7158 19.8 79.0358 19.544C79.3558 19.288 79.7718 19.096 80.2838 18.968C80.8278 18.808 81.4198 18.696 82.0598 18.632C82.6998 18.568 83.3558 18.536 84.0278 18.536C85.4678 18.536 86.7478 18.712 87.8678 19.064C89.0198 19.384 89.9798 19.96 90.7478 20.792C91.5478 21.592 92.1558 22.68 92.5718 24.056C92.9878 25.4 93.1958 27.112 93.1958 29.192V36.248ZM83.8358 39.464C84.9558 39.464 85.9318 39.144 86.7638 38.504C87.5958 37.832 88.2998 37.032 88.8758 36.104V31.304C88.1398 30.952 87.3238 30.664 86.4278 30.44C85.5318 30.184 84.6358 30.056 83.7398 30.056C82.4598 30.056 81.3558 30.44 80.4278 31.208C79.5318 31.976 79.0838 33.064 79.0838 34.472C79.0838 35.944 79.5158 37.144 80.3798 38.072C81.2438 39 82.3958 39.464 83.8358 39.464ZM112.294 18.536C114.15 18.536 115.734 18.84 117.046 19.448C118.39 20.024 119.494 20.824 120.358 21.848C121.222 22.872 121.846 24.088 122.23 25.496C122.646 26.872 122.854 28.376 122.854 30.008C122.854 32.12 122.534 33.928 121.894 35.432C121.286 36.904 120.47 38.104 119.446 39.032C118.454 39.96 117.302 40.632 115.99 41.048C114.71 41.464 113.382 41.672 112.006 41.672C110.694 41.672 109.542 41.48 108.55 41.096C107.59 40.712 106.646 40.008 105.718 38.984V48.248C105.718 48.888 105.814 49.416 106.006 49.832C106.23 50.248 106.486 50.584 106.774 50.84C107.094 51.096 107.446 51.272 107.83 51.368C108.246 51.496 108.646 51.56 109.03 51.56V53C108.646 53 108.214 52.968 107.734 52.904C107.286 52.872 106.806 52.824 106.294 52.76C105.782 52.696 105.286 52.632 104.806 52.568C104.358 52.536 103.942 52.52 103.558 52.52C103.174 52.52 102.742 52.536 102.262 52.568C101.814 52.632 101.334 52.696 100.822 52.76C100.31 52.824 99.8141 52.872 99.3341 52.904C98.8861 52.968 98.4701 53 98.0861 53V51.56C98.9501 51.56 99.7181 51.32 100.39 50.84C101.062 50.36 101.398 49.496 101.398 48.248V28.232C101.398 27.048 101.366 26.072 101.302 25.304C101.27 24.504 101.142 23.896 100.918 23.48C100.694 23.032 100.374 22.728 99.9581 22.568C99.5421 22.376 98.9661 22.28 98.2301 22.28V21.08C99.0301 21.08 99.7181 21.032 100.294 20.936C100.902 20.84 101.446 20.696 101.926 20.504C102.406 20.312 102.838 20.088 103.222 19.832C103.638 19.576 104.07 19.304 104.518 19.016H105.718V21.416C106.742 20.36 107.83 19.624 108.982 19.208C110.134 18.76 111.238 18.536 112.294 18.536ZM112.054 20.744C110.934 20.744 109.958 21 109.126 21.512C108.326 21.992 107.654 22.664 107.11 23.528C106.598 24.392 106.198 25.4 105.91 26.552C105.654 27.704 105.526 28.92 105.526 30.2C105.526 31.448 105.654 32.632 105.91 33.752C106.166 34.84 106.566 35.816 107.11 36.68C107.654 37.512 108.342 38.168 109.174 38.648C110.006 39.128 111.014 39.368 112.198 39.368C113.318 39.368 114.262 39.144 115.03 38.696C115.83 38.216 116.47 37.576 116.95 36.776C117.43 35.944 117.766 34.984 117.958 33.896C118.182 32.776 118.294 31.56 118.294 30.248C118.294 29 118.182 27.816 117.958 26.696C117.766 25.544 117.43 24.536 116.95 23.672C116.47 22.776 115.83 22.072 115.03 21.56C114.23 21.016 113.238 20.744 112.054 20.744ZM140.091 18.536C141.947 18.536 143.531 18.84 144.843 19.448C146.187 20.024 147.291 20.824 148.155 21.848C149.019 22.872 149.643 24.088 150.027 25.496C150.443 26.872 150.651 28.376 150.651 30.008C150.651 32.12 150.331 33.928 149.691 35.432C149.083 36.904 148.267 38.104 147.243 39.032C146.251 39.96 145.099 40.632 143.787 41.048C142.507 41.464 141.179 41.672 139.803 41.672C138.491 41.672 137.339 41.48 136.347 41.096C135.387 40.712 134.443 40.008 133.515 38.984V48.248C133.515 48.888 133.611 49.416 133.803 49.832C134.027 50.248 134.283 50.584 134.571 50.84C134.891 51.096 135.243 51.272 135.627 51.368C136.043 51.496 136.443 51.56 136.827 51.56V53C136.443 53 136.011 52.968 135.531 52.904C135.083 52.872 134.603 52.824 134.091 52.76C133.579 52.696 133.083 52.632 132.603 52.568C132.155 52.536 131.739 52.52 131.355 52.52C130.971 52.52 130.539 52.536 130.059 52.568C129.611 52.632 129.131 52.696 128.619 52.76C128.107 52.824 127.611 52.872 127.131 52.904C126.683 52.968 126.267 53 125.883 53V51.56C126.747 51.56 127.515 51.32 128.187 50.84C128.859 50.36 129.195 49.496 129.195 48.248V28.232C129.195 27.048 129.163 26.072 129.099 25.304C129.067 24.504 128.939 23.896 128.715 23.48C128.491 23.032 128.171 22.728 127.755 22.568C127.339 22.376 126.763 22.28 126.027 22.28V21.08C126.827 21.08 127.515 21.032 128.091 20.936C128.699 20.84 129.243 20.696 129.723 20.504C130.203 20.312 130.635 20.088 131.019 19.832C131.435 19.576 131.867 19.304 132.315 19.016H133.515V21.416C134.539 20.36 135.627 19.624 136.779 19.208C137.931 18.76 139.035 18.536 140.091 18.536ZM139.851 20.744C138.731 20.744 137.755 21 136.923 21.512C136.123 21.992 135.451 22.664 134.907 23.528C134.395 24.392 133.995 25.4 133.707 26.552C133.451 27.704 133.323 28.92 133.323 30.2C133.323 31.448 133.451 32.632 133.707 33.752C133.963 34.84 134.363 35.816 134.907 36.68C135.451 37.512 136.139 38.168 136.971 38.648C137.803 39.128 138.811 39.368 139.995 39.368C141.115 39.368 142.059 39.144 142.827 38.696C143.627 38.216 144.267 37.576 144.747 36.776C145.227 35.944 145.563 34.984 145.755 33.896C145.979 32.776 146.091 31.56 146.091 30.248C146.091 29 145.979 27.816 145.755 26.696C145.563 25.544 145.227 24.536 144.747 23.672C144.267 22.776 143.627 22.072 142.827 21.56C142.027 21.016 141.035 20.744 139.851 20.744Z" fill="url(#paint0_linear_265_1486)"/>
<defs>
<linearGradient id="paint0_linear_265_1486" x1="0" y1="23" x2="153" y2="23" gradientUnits="userSpaceOnUse">
<stop stop-color="#F1B2A8"/>
<stop offset="0.49" stop-color="#EC57A8"/>
<stop offset="1" stop-color="#5B5AF7"/>
</linearGradient>
</defs>
</svg>
